<svg width="240" height="48" viewBox="0 0 240 48" fill="none" xmlns="http://www.w3.org/2000/svg">
<path d="M24.3349 33.28H11.4364L9.3687 39.3846H0.556396L13.061 4.82462H22.8087L35.3133 39.3846H26.4025L24.3349 33.28ZM22.1687 26.7815L17.8856 14.1292L13.6518 26.7815H22.1687Z" fill="#FFF"/>
<path d="M47.3899 4.82462V25.5015C47.3899 27.5692 47.8986 29.161 48.916 30.2769C49.9334 31.3928 51.4268 31.9508 53.396 31.9508C55.3652 31.9508 56.875 31.3928 57.9252 30.2769C58.9755 29.161 59.5006 27.5692 59.5006 25.5015V4.82462H67.9191V25.4523C67.9191 28.5374 67.2627 31.1467 65.9499 33.28C64.637 35.4133 62.8647 37.0215 60.6329 38.1046C58.434 39.1877 55.9724 39.7292 53.2483 39.7292C50.5242 39.7292 48.0791 39.2041 45.9129 38.1539C43.7796 37.0708 42.0893 35.4626 40.8422 33.3292C39.595 31.1631 38.9714 28.5374 38.9714 25.4523V4.82462H47.3899Z" fill="#FFF"/>
<path d="M98.6922 4.82462V11.5692H89.5352V39.3846H81.1168V11.5692H71.9599V4.82462H98.6922Z" fill="#FFF"/>
<path d="M119.262 39.7292C116.013 39.7292 113.026 38.9744 110.302 37.4646C107.61 35.9549 105.461 33.8544 103.853 31.1631C102.277 28.439 101.489 25.3867 101.489 22.0062C101.489 18.6256 102.277 15.5897 103.853 12.8985C105.461 10.2072 107.61 8.10667 110.302 6.59693C113.026 5.08719 116.013 4.33231 119.262 4.33231C122.511 4.33231 125.481 5.08719 128.173 6.59693C130.897 8.10667 133.03 10.2072 134.573 12.8985C136.148 15.5897 136.936 18.6256 136.936 22.0062C136.936 25.3867 136.148 28.439 134.573 31.1631C132.997 33.8544 130.864 35.9549 128.173 37.4646C125.481 38.9744 122.511 39.7292 119.262 39.7292ZM119.262 32.0492C122.019 32.0492 124.218 31.1303 125.859 29.2923C127.533 27.4544 128.369 25.0256 128.369 22.0062C128.369 18.9539 127.533 16.5251 125.859 14.72C124.218 12.8821 122.019 11.9631 119.262 11.9631C116.472 11.9631 114.24 12.8656 112.566 14.6708C110.925 16.4759 110.105 18.921 110.105 22.0062C110.105 25.0585 110.925 27.5036 112.566 29.3415C114.24 31.1467 116.472 32.0492 119.262 32.0492Z" fill="#FFF"/>
<path d="M144.743 0V21.6834H139.461V0H144.743Z" fill="#3564DD"/>
<path d="M159.072 4.26255C161.091 4.26255 162.697 4.92149 163.891 6.23938C165.106 7.53668 165.713 9.32819 165.713 11.6139V21.6834H160.462V12.3243C160.462 11.1712 160.164 10.2754 159.567 9.63706C158.97 8.99871 158.166 8.67954 157.157 8.67954C156.148 8.67954 155.345 8.99871 154.748 9.63706C154.151 10.2754 153.852 11.1712 153.852 12.3243V21.6834H148.571V4.44788H153.852V6.73359C154.388 5.97168 155.109 5.37452 156.015 4.94208C156.921 4.48906 157.94 4.26255 159.072 4.26255Z" fill="#3564DD"/>
<path d="M176.395 21.9305C174.892 21.9305 173.554 21.6731 172.38 21.1583C171.206 20.6435 170.28 19.9434 169.6 19.0579C168.92 18.1519 168.54 17.1429 168.457 16.0309H173.677C173.739 16.6281 174.017 17.112 174.511 17.4826C175.005 17.8533 175.613 18.0386 176.334 18.0386C176.993 18.0386 177.497 17.9151 177.847 17.668C178.218 17.4003 178.403 17.0605 178.403 16.6486C178.403 16.1544 178.146 15.7941 177.631 15.5676C177.116 15.3205 176.282 15.0528 175.129 14.7645C173.893 14.4762 172.864 14.1776 172.04 13.8687C171.216 13.5393 170.506 13.0347 169.909 12.3552C169.312 11.6551 169.013 10.7181 169.013 9.5444C169.013 8.55598 169.281 7.66023 169.816 6.85714C170.372 6.03346 171.175 5.38481 172.225 4.9112C173.296 4.43758 174.563 4.20077 176.025 4.20077C178.187 4.20077 179.886 4.73616 181.121 5.80695C182.377 6.87773 183.098 8.29858 183.283 10.0695H178.403C178.321 9.47233 178.053 8.99871 177.6 8.64865C177.168 8.29858 176.591 8.12355 175.87 8.12355C175.253 8.12355 174.779 8.2471 174.449 8.49421C174.12 8.72072 173.955 9.0399 173.955 9.45174C173.955 9.94595 174.213 10.3166 174.727 10.5637C175.263 10.8108 176.086 11.0579 177.198 11.305C178.475 11.6345 179.515 11.964 180.318 12.2934C181.121 12.6023 181.821 13.1171 182.419 13.8378C183.036 14.538 183.355 15.4852 183.376 16.6795C183.376 17.6885 183.088 18.5946 182.511 19.3977C181.955 20.1802 181.142 20.7979 180.071 21.251C179.021 21.704 177.796 21.9305 176.395 21.9305Z" fill="#3564DD"/>
<path d="M202.855 12.7876C202.855 13.2819 202.824 13.7967 202.762 14.332H190.808C190.891 15.4028 191.23 16.2265 191.828 16.8031C192.445 17.3591 193.197 17.6371 194.082 17.6371C195.4 17.6371 196.317 17.0811 196.831 15.9691H202.453C202.165 17.1017 201.64 18.121 200.878 19.027C200.136 19.9331 199.199 20.6435 198.067 21.1583C196.934 21.6731 195.668 21.9305 194.268 21.9305C192.579 21.9305 191.076 21.5701 189.758 20.8494C188.44 20.1287 187.411 19.0991 186.669 17.7606C185.928 16.4221 185.557 14.8571 185.557 13.0656C185.557 11.2741 185.918 9.70914 186.638 8.37066C187.38 7.03217 188.409 6.00257 189.727 5.28185C191.045 4.56113 192.559 4.20077 194.268 4.20077C195.936 4.20077 197.418 4.55084 198.716 5.25097C200.013 5.95109 201.022 6.94981 201.743 8.2471C202.484 9.5444 202.855 11.0579 202.855 12.7876ZM197.449 11.3977C197.449 10.4916 197.14 9.77091 196.523 9.23552C195.905 8.70013 195.133 8.43243 194.206 8.43243C193.32 8.43243 192.569 8.68983 191.951 9.20463C191.354 9.71943 190.983 10.4504 190.839 11.3977H197.449Z" fill="#3564DD"/>
<path d="M210.923 7.32046C211.541 6.37323 212.313 5.63192 213.239 5.09653C214.166 4.54054 215.196 4.26255 216.328 4.26255V9.85328H214.877C213.559 9.85328 212.57 10.1416 211.911 10.7181C211.252 11.2741 210.923 12.2625 210.923 13.6834V21.6834H205.641V4.44788H210.923V7.32046Z" fill="#3564DD"/>
<path d="M228.459 17.2046V21.6834H225.772C223.857 21.6834 222.364 21.2201 221.293 20.2934C220.222 19.3462 219.687 17.8121 219.687 15.6911V8.83398H217.586V4.44788H219.687V0.247105H224.969V4.44788H228.428V8.83398H224.969V15.7529C224.969 16.2677 225.092 16.6384 225.339 16.8649C225.586 17.0914 225.998 17.2046 226.575 17.2046H228.459Z" fill="#3564DD"/>
<path d="M144.743 17.8224V39.5058H139.461V17.8224H144.743Z" fill="#3564DD"/>
<path d="M170.563 22.0849C172.704 22.0849 174.403 22.7336 175.659 24.0309C176.936 25.3282 177.574 27.13 177.574 29.4363V39.5058H172.323V30.1467C172.323 29.0347 172.025 28.1802 171.428 27.583C170.851 26.9652 170.048 26.6564 169.018 26.6564C167.989 26.6564 167.175 26.9652 166.578 27.583C166.002 28.1802 165.713 29.0347 165.713 30.1467V39.5058H160.462V30.1467C160.462 29.0347 160.164 28.1802 159.567 27.583C158.99 26.9652 158.187 26.6564 157.157 26.6564C156.128 26.6564 155.314 26.9652 154.717 27.583C154.141 28.1802 153.852 29.0347 153.852 30.1467V39.5058H148.571V21.4981H153.852V24.4324C154.388 23.7117 155.088 23.1454 155.953 22.7336C156.818 22.3012 157.796 22.0849 158.887 22.0849C160.184 22.0849 161.338 22.3629 162.347 22.9189C163.376 23.4749 164.179 24.2677 164.756 25.2973C165.353 24.3501 166.166 23.5779 167.196 22.9807C168.226 22.3835 169.348 22.0849 170.563 22.0849Z" fill="#3564DD"/>
<path d="M180.218 30.8571C180.218 29.0862 180.548 27.5315 181.207 26.193C181.886 24.8546 182.803 23.825 183.956 23.1042C185.109 22.3835 186.396 22.0232 187.817 22.0232C189.032 22.0232 190.092 22.2703 190.998 22.7645C191.925 23.2587 192.635 23.9073 193.129 24.7104V22.2703H198.411V39.5058H193.129V37.0656C192.615 37.8687 191.894 38.5174 190.967 39.0116C190.061 39.5058 189.001 39.7529 187.786 39.7529C186.386 39.7529 185.109 39.3925 183.956 38.6718C182.803 37.9305 181.886 36.8906 181.207 35.5521C180.548 34.193 180.218 32.6281 180.218 30.8571ZM193.129 30.888C193.129 29.5701 192.759 28.5302 192.017 27.7683C191.297 27.0064 190.411 26.6255 189.361 26.6255C188.311 26.6255 187.415 27.0064 186.674 27.7683C185.953 28.5096 185.593 29.5393 185.593 30.8571C185.593 32.175 185.953 33.2252 186.674 34.0077C187.415 34.7696 188.311 35.1506 189.361 35.1506C190.411 35.1506 191.297 34.7696 192.017 34.0077C192.759 33.2458 193.129 32.2059 193.129 30.888Z" fill="#3564DD"/>
<path d="M208.781 22.0232C209.996 22.0232 211.056 22.2703 211.962 22.7645C212.889 23.2587 213.599 23.9073 214.093 24.7104V22.2703H219.375V39.4749C219.375 41.0605 219.056 42.4916 218.418 43.7683C217.8 45.0656 216.842 46.0952 215.545 46.8571C214.268 47.619 212.673 48 210.758 48C208.204 48 206.135 47.3925 204.549 46.1776C202.963 44.9833 202.057 43.3565 201.831 41.2973H207.051C207.216 41.9562 207.607 42.471 208.225 42.8417C208.843 43.2329 209.604 43.4286 210.51 43.4286C211.602 43.4286 212.467 43.1094 213.105 42.471C213.764 41.8533 214.093 40.8546 214.093 39.4749V37.0347C213.579 37.8378 212.868 38.4968 211.962 39.0116C211.056 39.5058 209.996 39.7529 208.781 39.7529C207.36 39.7529 206.073 39.3925 204.92 38.6718C203.767 37.9305 202.85 36.8906 202.171 35.5521C201.512 34.193 201.182 32.6281 201.182 30.8571C201.182 29.0862 201.512 27.5315 202.171 26.193C202.85 24.8546 203.767 23.825 204.92 23.1042C206.073 22.3835 207.36 22.0232 208.781 22.0232ZM214.093 30.888C214.093 29.5701 213.723 28.5302 212.981 27.7683C212.261 27.0064 211.375 26.6255 210.325 26.6255C209.275 26.6255 208.379 27.0064 207.638 27.7683C206.917 28.5096 206.557 29.5393 206.557 30.8571C206.557 32.175 206.917 33.2252 207.638 34.0077C208.379 34.7696 209.275 35.1506 210.325 35.1506C211.375 35.1506 212.261 34.7696 212.981 34.0077C213.723 33.2458 214.093 32.2059 214.093 30.888Z" fill="#3564DD"/>
<path d="M239.444 30.61C239.444 31.1042 239.413 31.619 239.351 32.1544H227.397C227.48 33.2252 227.819 34.0489 228.417 34.6255C229.034 35.1815 229.786 35.4595 230.671 35.4595C231.989 35.4595 232.906 34.9035 233.42 33.7915H239.042C238.754 34.9241 238.229 35.9434 237.467 36.8494C236.725 37.7555 235.789 38.4659 234.656 38.9807C233.523 39.4955 232.257 39.7529 230.857 39.7529C229.168 39.7529 227.665 39.3925 226.347 38.6718C225.029 37.9511 224 36.9215 223.258 35.583C222.517 34.2445 222.146 32.6795 222.146 30.888C222.146 29.0965 222.507 27.5315 223.227 26.193C223.969 24.8546 224.998 23.825 226.316 23.1042C227.634 22.3835 229.148 22.0232 230.857 22.0232C232.525 22.0232 234.007 22.3732 235.305 23.0734C236.602 23.7735 237.611 24.7722 238.332 26.0695C239.073 27.3668 239.444 28.8803 239.444 30.61ZM234.038 29.2201C234.038 28.314 233.729 27.5933 233.112 27.0579C232.494 26.5225 231.722 26.2548 230.795 26.2548C229.91 26.2548 229.158 26.5122 228.54 27.027C227.943 27.5418 227.572 28.2728 227.428 29.2201H234.038Z" fill="#3564DD"/>
</svg>
